<svg width="1016" height="426" viewBox="0 0 1016 426" fill="none" xmlns="http://www.w3.org/2000/svg">
<path fill-rule="evenodd" clip-rule="evenodd" d="M1015.38 296.303H514.507L457.139 425.072H1015.38V296.303ZM1000.05 311.633V409.742H480.751L524.456 311.633H1000.05Z" fill="#653090"/>
<path fill-rule="evenodd" clip-rule="evenodd" d="M527.547 296.303H0.86193V425.072H471.661L527.547 296.303Z" fill="#653090"/>
<path d="M139.047 346.186C137.186 342.596 134.602 339.888 131.294 338.062C127.977 336.228 124.15 335.319 119.801 335.319C115.047 335.319 110.804 336.386 107.073 338.521C103.351 340.664 100.431 343.698 98.3321 347.632C96.224 351.566 95.1744 356.118 95.1744 361.286C95.1744 366.464 96.224 371.033 98.3321 375.002C100.431 378.971 103.351 382.023 107.073 384.158C110.804 386.301 115.047 387.368 119.801 387.368C126.222 387.368 131.426 385.569 135.431 381.988C139.426 378.398 141.878 373.538 142.778 367.399H115.77V357.979H155.4V367.187C154.642 372.78 152.657 377.913 149.446 382.605C146.245 387.298 142.073 391.038 136.93 393.834C131.788 396.63 126.081 398.024 119.801 398.024C113.045 398.024 106.87 396.453 101.278 393.313C95.6948 390.182 91.2581 385.816 87.9857 380.224C84.7045 374.641 83.064 368.325 83.064 361.286C83.064 354.257 84.7045 347.941 87.9857 342.349C91.2581 336.766 95.7124 332.4 101.331 329.259C106.958 326.119 113.115 324.558 119.801 324.558C127.457 324.558 134.275 326.437 140.238 330.194C146.209 333.952 150.54 339.279 153.23 346.186H139.047Z" fill="white"/>
<path d="M204.345 397.402L187.789 368.63H178.783V397.402H166.99V325.48H191.828C197.341 325.48 202.016 326.451 205.844 328.382C209.672 330.314 212.539 332.898 214.435 336.144C216.332 339.381 217.284 343.007 217.284 347.002C217.284 351.695 215.917 355.955 213.191 359.783C210.466 363.611 206.276 366.222 200.622 367.598L218.422 397.402H204.345ZM178.783 359.219H191.828C196.239 359.219 199.573 358.116 201.813 355.902C204.054 353.697 205.174 350.733 205.174 347.002C205.174 343.28 204.071 340.369 201.866 338.261C199.652 336.153 196.309 335.103 191.828 335.103H178.783V359.219Z" fill="white"/>
<path d="M265.198 398.121C258.503 398.121 252.347 396.551 246.719 393.41C241.101 390.27 236.655 385.896 233.374 380.268C230.101 374.649 228.461 368.316 228.461 361.278C228.461 354.248 230.101 347.932 233.374 342.34C236.655 336.757 241.101 332.391 246.719 329.251C252.347 326.11 258.503 324.549 265.198 324.549C271.954 324.549 278.146 326.11 283.774 329.251C289.392 332.391 293.82 336.757 297.066 342.34C300.312 347.932 301.926 354.248 301.926 361.278C301.926 368.316 300.312 374.649 297.066 380.268C293.82 385.896 289.392 390.27 283.774 393.41C278.146 396.551 271.954 398.121 265.198 398.121ZM265.198 387.871C269.952 387.871 274.195 386.786 277.926 384.617C281.648 382.447 284.559 379.342 286.667 375.302C288.775 371.271 289.825 366.596 289.825 361.278C289.825 355.968 288.775 351.311 286.667 347.315C284.559 343.31 281.648 340.241 277.926 338.098C274.195 335.963 269.952 334.896 265.198 334.896C260.435 334.896 256.192 335.963 252.47 338.098C248.739 340.241 245.828 343.31 243.72 347.315C241.621 351.311 240.563 355.968 240.563 361.278C240.563 366.596 241.621 371.271 243.72 375.302C245.828 379.342 248.739 382.447 252.47 384.617C256.192 386.786 260.435 387.871 265.198 387.871Z" fill="white"/>
<path d="M325.211 325.476V371.316C325.211 376.767 326.64 380.877 329.507 383.629C332.373 386.39 336.351 387.775 341.458 387.775C346.636 387.775 350.649 386.39 353.516 383.629C356.373 380.877 357.811 376.767 357.811 371.316V325.476H369.604V371.113C369.604 376.979 368.325 381.945 365.776 386.011C363.227 390.086 359.813 393.12 355.535 395.122C351.258 397.125 346.53 398.121 341.352 398.121C336.184 398.121 331.473 397.125 327.231 395.122C322.988 393.12 319.628 390.086 317.14 386.011C314.653 381.945 313.418 376.979 313.418 371.113V325.476H325.211Z" fill="white"/>
<path d="M435.21 346.905C435.21 350.557 434.346 354.006 432.626 357.252C430.897 360.489 428.136 363.135 424.343 365.164C420.55 367.201 415.69 368.215 409.754 368.215H396.718V397.402H384.916V325.48H409.754C415.276 325.48 419.951 326.433 423.779 328.329C427.607 330.226 430.465 332.793 432.37 336.039C434.266 339.276 435.21 342.901 435.21 346.905ZM409.754 358.592C414.235 358.592 417.587 357.578 419.792 355.54C421.997 353.512 423.108 350.627 423.108 346.905C423.108 339.037 418.654 335.103 409.754 335.103H396.718V358.592H409.754Z" fill="white"/>
<path d="M573.207 391.789C569.458 391.789 566.071 391.128 563.072 389.814C560.065 388.499 557.701 386.638 555.99 384.222C554.27 381.805 553.414 378.991 553.414 375.772H563.231C563.443 378.18 564.395 380.164 566.089 381.725C567.783 383.278 570.155 384.063 573.207 384.063C576.374 384.063 578.843 383.295 580.616 381.77C582.389 380.235 583.271 378.268 583.271 375.851C583.271 373.972 582.724 372.437 581.622 371.264C580.519 370.082 579.152 369.165 577.52 368.521C575.88 367.877 573.613 367.18 570.72 366.431C567.068 365.469 564.104 364.49 561.82 363.493C559.544 362.506 557.595 360.962 555.99 358.872C554.375 356.772 553.573 353.985 553.573 350.501C553.573 347.282 554.375 344.459 555.99 342.042C557.595 339.634 559.853 337.782 562.746 336.494C565.648 335.206 569 334.562 572.81 334.562C578.226 334.562 582.671 335.912 586.129 338.629C589.587 341.337 591.509 345.05 591.88 349.769H581.745C581.578 347.731 580.616 345.994 578.843 344.538C577.07 343.092 574.742 342.369 571.84 342.369C569.211 342.369 567.068 343.039 565.401 344.38C563.743 345.72 562.905 347.652 562.905 350.175C562.905 351.895 563.434 353.297 564.475 354.4C565.524 355.502 566.856 356.375 568.462 357.019C570.076 357.663 572.272 358.36 575.059 359.11C578.764 360.124 581.78 361.147 584.118 362.17C586.446 363.185 588.44 364.755 590.072 366.872C591.712 368.998 592.524 371.829 592.524 375.366C592.524 378.206 591.765 380.896 590.23 383.419C588.705 385.933 586.473 387.961 583.553 389.496C580.634 391.022 577.185 391.789 573.207 391.789Z" fill="#653090"/>
<path d="M608.065 341.011C606.398 341.011 605.004 340.446 603.875 339.317C602.746 338.188 602.182 336.794 602.182 335.136C602.182 333.469 602.746 332.075 603.875 330.946C605.004 329.817 606.398 329.262 608.065 329.262C609.67 329.262 611.037 329.817 612.166 330.946C613.295 332.075 613.86 333.469 613.86 335.136C613.86 336.794 613.295 338.188 612.166 339.317C611.037 340.446 609.67 341.011 608.065 341.011ZM612.572 346.885V391.234H603.39V346.885H612.572Z" fill="#653090"/>
<path d="M647.016 346.152C650.5 346.152 653.631 346.876 656.392 348.322C659.153 349.769 661.314 351.921 662.875 354.761C664.428 357.61 665.204 361.041 665.204 365.063V391.225H656.11V366.431C656.11 362.461 655.122 359.418 653.129 357.301C651.144 355.176 648.436 354.117 645.005 354.117C641.565 354.117 638.848 355.176 636.837 357.301C634.826 359.418 633.812 362.461 633.812 366.431V391.225H624.639V346.876H633.812V351.947C635.32 350.121 637.234 348.701 639.572 347.678C641.909 346.664 644.388 346.152 647.016 346.152Z" fill="#653090"/>
<path d="M673.812 369.002C673.812 364.442 674.739 360.429 676.591 356.971C678.443 353.514 681.01 350.841 684.282 348.962C687.555 347.083 691.312 346.148 695.546 346.148C700.918 346.148 705.354 347.419 708.865 349.968C712.384 352.517 714.757 356.151 715.992 360.879H706.095C705.284 358.674 703.996 356.962 702.232 355.727C700.459 354.493 698.227 353.875 695.546 353.875C691.789 353.875 688.798 355.198 686.576 357.853C684.344 360.517 683.233 364.23 683.233 369.002C683.233 373.783 684.344 377.505 686.576 380.195C688.798 382.877 691.789 384.217 695.546 384.217C700.856 384.217 704.375 381.88 706.095 377.214H715.992C714.704 381.721 712.287 385.302 708.75 387.957C705.204 390.612 700.803 391.944 695.546 391.944C691.312 391.944 687.555 390.992 684.282 389.086C681.01 387.181 678.443 384.5 676.591 381.033C674.739 377.576 673.812 373.562 673.812 369.002Z" fill="#653090"/>
<path d="M765.809 367.961C765.809 369.62 765.703 371.119 765.491 372.469H731.603C731.868 376.006 733.191 378.846 735.546 380.998C737.91 383.141 740.803 384.217 744.243 384.217C749.173 384.217 752.666 382.153 754.704 378.017H764.6C763.26 382.092 760.834 385.435 757.323 388.037C753.804 390.639 749.447 391.944 744.243 391.944C740 391.944 736.207 390.992 732.856 389.086C729.495 387.181 726.867 384.5 724.961 381.033C723.056 377.576 722.104 373.562 722.104 369.002C722.104 364.442 723.03 360.429 724.882 356.971C726.734 353.514 729.336 350.841 732.688 348.962C736.049 347.083 739.894 346.148 744.243 346.148C748.424 346.148 752.155 347.057 755.427 348.883C758.699 350.709 761.248 353.267 763.074 356.565C764.9 359.873 765.809 363.666 765.809 367.961ZM756.23 365.06C756.177 361.681 754.968 358.973 752.613 356.936C750.249 354.889 747.321 353.875 743.837 353.875C740.671 353.875 737.963 354.881 735.705 356.892C733.455 358.903 732.115 361.628 731.682 365.06H756.23Z" fill="#653090"/>
<path d="M793.338 340.924V332.554H810.079V391.227H800.818V340.924H793.338Z" fill="#653090"/>
<path d="M834.141 375.283C834.679 377.964 835.835 380.002 837.608 381.395C839.372 382.798 841.762 383.495 844.77 383.495C848.571 383.495 851.367 381.986 853.14 378.987C854.904 375.98 855.795 370.855 855.795 363.613C854.508 365.439 852.691 366.842 850.362 367.838C848.025 368.826 845.493 369.329 842.759 369.329C839.266 369.329 836.099 368.615 833.259 367.194C830.41 365.774 828.17 363.649 826.538 360.835C824.897 358.021 824.086 354.599 824.086 350.577C824.086 344.667 825.815 339.966 829.272 336.446C832.73 332.936 837.493 331.181 843.561 331.181C850.856 331.181 856.051 333.606 859.129 338.458C862.217 343.318 863.76 350.762 863.76 360.8C863.76 367.715 863.187 373.378 862.031 377.779C860.876 382.181 858.874 385.506 856.033 387.755C853.193 390.013 849.251 391.142 844.205 391.142C838.463 391.142 834.035 389.634 830.922 386.635C827.808 383.627 826.071 379.843 825.691 375.283H834.141ZM844.364 361.602C847.584 361.602 850.115 360.597 851.967 358.586C853.819 356.566 854.746 353.902 854.746 350.577C854.746 346.872 853.767 343.988 851.808 341.924C849.85 339.851 847.178 338.819 843.799 338.819C840.421 338.819 837.749 339.878 835.791 342.003C833.833 344.12 832.853 346.899 832.853 350.33C832.853 353.602 833.806 356.301 835.711 358.418C837.616 360.544 840.501 361.602 844.364 361.602Z" fill="#653090"/>
<path d="M883.721 360.563C878.138 357.776 875.351 353.374 875.351 347.367C875.351 344.466 876.074 341.811 877.521 339.394C878.976 336.986 881.146 335.063 884.048 333.643C886.941 332.223 890.487 331.508 894.668 331.508C898.796 331.508 902.324 332.223 905.252 333.643C908.172 335.063 910.359 336.986 911.814 339.394C913.261 341.811 913.984 344.466 913.984 347.367C913.984 350.366 913.217 353.013 911.691 355.288C910.165 357.573 908.136 359.328 905.614 360.563C908.674 361.692 911.082 363.526 912.855 366.076C914.628 368.625 915.51 371.615 915.51 375.055C915.51 378.539 914.628 381.626 912.855 384.307C911.082 386.989 908.621 389.053 905.455 390.508C902.288 391.955 898.69 392.678 894.668 392.678C890.645 392.678 887.064 391.955 883.924 390.508C880.784 389.053 878.332 386.989 876.559 384.307C874.786 381.626 873.904 378.539 873.904 375.055C873.904 371.562 874.786 368.554 876.559 366.04C878.332 363.518 880.714 361.692 883.721 360.563ZM905.208 348.488C905.208 345.489 904.273 343.178 902.394 341.572C900.516 339.958 897.94 339.156 894.668 339.156C891.448 339.156 888.899 339.958 887.02 341.572C885.141 343.178 884.206 345.515 884.206 348.576C884.206 351.257 885.186 353.445 887.144 355.129C889.102 356.823 891.607 357.67 894.668 357.67C897.728 357.67 900.251 356.805 902.235 355.094C904.22 353.374 905.208 351.178 905.208 348.488ZM894.668 364.585C891.131 364.585 888.246 365.458 886.015 367.205C883.792 368.951 882.672 371.456 882.672 374.728C882.672 377.789 883.748 380.268 885.891 382.173C888.044 384.078 890.963 385.031 894.668 385.031C898.319 385.031 901.204 384.069 903.32 382.138C905.437 380.206 906.496 377.736 906.496 374.728C906.496 371.509 905.411 369.013 903.241 367.249C901.062 365.476 898.213 364.585 894.668 364.585Z" fill="#653090"/>
<path d="M962.355 339.634L939.977 391.224H930.725L953.34 340.595H923.562V332.789H962.355V339.634Z" fill="#653090"/>
<path d="M477.732 151.318C474.11 150.098 470.168 148.927 465.858 147.648C463.834 147.056 461.697 146.476 459.512 145.938L449.875 166.667L415.887 239.594H455.15L481.888 180.3L482.367 179.181L492.383 156.806L477.732 151.318ZM569.746 91.2779L527.385 0.183594L473.205 116.483L460.957 142.795C462.927 142.48 464.84 142.155 466.652 141.841C471.073 141.089 474.963 140.344 478.371 139.545L502.824 133.424C502.824 133.424 508.258 120.152 513.965 105.827C520.299 90.1118 527.012 73.1117 527.71 70.5008C528.455 73.223 533.783 86.808 538.732 99.3752C543.532 111.31 547.954 122.342 547.954 122.342L580.614 114.511L569.746 91.2779Z" fill="#653090"/>
<path d="M638.734 239.544L591.311 221.27L577.131 188.56L559.985 149.138L547.947 122.34L580.609 114.508L623.224 206.136L638.734 239.544Z" fill="#653090"/>
<path d="M577.135 188.561L559.81 181.955L529.236 170.608L492.37 156.809L477.719 151.322C474.097 150.097 470.155 148.929 465.84 147.646C463.814 147.06 461.684 146.48 459.499 145.941C457.107 145.302 454.598 144.722 451.988 144.077C455.137 143.65 458.115 143.224 460.938 142.799C462.914 142.484 464.827 142.159 466.639 141.84C471.06 141.093 474.95 140.348 478.358 139.548L502.811 133.421L531.74 126.229L547.941 122.341L580.587 114.515L569.719 91.2817L538.719 99.379L537.76 99.6514L515.385 105.452L513.952 105.831L473.192 116.485L381.719 140.348L449.857 166.67L482.354 179.185L591.301 221.277L577.135 188.561Z" fill="#653090"/>
<path d="M0.833496 10.0332V41.8381H62.0997V240.339H99.5036V41.8381H160.338V10.0332H0.833496Z" fill="#653090"/>
<path d="M339.834 10.0332V95.0056H226.573V10.0332H189.066V240.339H226.573V128.515H339.834V240.339H377.179V10.0332H339.834Z" fill="#653090"/>
<path d="M680.835 108.222V42.1663H687.548C706.471 42.1663 719.41 44.7183 726.378 49.9452C733.359 55.1069 736.773 64.057 736.773 76.7367C736.773 88.5151 733.526 96.661 727.082 101.296C720.522 105.883 707.417 108.222 687.548 108.222H680.835ZM796.01 232.884L722.389 135.552C739.765 133.474 752.871 127.241 761.808 116.799C770.707 106.358 775.182 91.92 775.182 73.4393C775.182 62.9382 773.277 53.2964 769.377 44.5061C765.49 35.6621 760.005 28.5237 752.82 22.9299C746.849 18.3474 739.701 15.05 731.237 13.0208C722.76 11.0544 710.882 10.0366 695.603 10.0366H643.334V240.347H678.495V137.31H682.753L759.366 240.347H801.662L796.01 232.884Z" fill="#653090"/>
<path d="M872.336 149.888L895.951 97.3587C897.434 93.6827 898.828 89.6871 900.26 85.3195C901.641 80.9505 902.971 76.2619 904.249 71.255C905.796 76.5816 907.177 81.43 908.724 85.7989C910.169 90.1666 911.55 94.0024 912.931 97.3587L936.483 149.888H872.336ZM903.942 0.932617L795.94 232.889L792.424 240.348H831.804L858.54 181.054H949.742L975.863 240.348H1015.38L903.942 0.932617Z" fill="#653090"/>
</svg>
