<svg width="1016" height="426" viewBox="0 0 1016 426" fill="none" xmlns="http://www.w3.org/2000/svg">
<path fill-rule="evenodd" clip-rule="evenodd" d="M1015.38 296.486H514.507L457.139 425.256H1015.38V296.486ZM1000.05 311.816V409.926H480.751L524.456 311.816H1000.05Z" fill="white"/>
<path fill-rule="evenodd" clip-rule="evenodd" d="M527.547 296.486H0.86193V425.256H471.661L527.547 296.486Z" fill="white"/>
<path d="M139.047 346.369C137.186 342.78 134.602 340.072 131.294 338.246C127.977 336.411 124.15 335.503 119.801 335.503C115.047 335.503 110.804 336.57 107.073 338.705C103.351 340.848 100.431 343.882 98.3321 347.816C96.224 351.75 95.1744 356.301 95.1744 361.47C95.1744 366.648 96.224 371.217 98.3321 375.186C100.431 379.155 103.351 382.207 107.073 384.341C110.804 386.485 115.047 387.552 119.801 387.552C126.222 387.552 131.426 385.753 135.431 382.172C139.426 378.582 141.878 373.722 142.778 367.583H115.77V358.162H155.4V367.371C154.642 372.963 152.657 378.097 149.446 382.789C146.245 387.482 142.073 391.221 136.93 394.017C131.788 396.814 126.081 398.207 119.801 398.207C113.045 398.207 106.87 396.637 101.278 393.497C95.6948 390.366 91.2581 386 87.9857 380.408C84.7045 374.824 83.064 368.509 83.064 361.47C83.064 354.44 84.7045 348.125 87.9857 342.533C91.2581 336.949 95.7124 332.583 101.331 329.443C106.958 326.303 113.115 324.742 119.801 324.742C127.457 324.742 134.275 326.62 140.238 330.378C146.209 334.135 150.54 339.463 153.23 346.369H139.047Z" fill="#653090"/>
<path d="M204.345 397.586L187.789 368.814H178.783V397.586H166.99V325.664H191.828C197.341 325.664 202.016 326.634 205.844 328.566C209.672 330.498 212.539 333.082 214.435 336.328C216.332 339.565 217.284 343.19 217.284 347.186C217.284 351.878 215.917 356.139 213.191 359.967C210.466 363.795 206.276 366.406 200.622 367.782L218.422 397.586H204.345ZM178.783 359.402H191.828C196.239 359.402 199.573 358.3 201.813 356.086C204.054 353.881 205.174 350.917 205.174 347.186C205.174 343.464 204.071 340.553 201.866 338.445C199.652 336.337 196.309 335.287 191.828 335.287H178.783V359.402Z" fill="#653090"/>
<path d="M265.198 398.304C258.503 398.304 252.347 396.734 246.719 393.594C241.101 390.454 236.655 386.079 233.374 380.452C230.101 374.833 228.461 368.5 228.461 361.461C228.461 354.431 230.101 348.116 233.374 342.524C236.655 336.94 241.101 332.574 246.719 329.434C252.347 326.294 258.503 324.733 265.198 324.733C271.954 324.733 278.146 326.294 283.774 329.434C289.392 332.574 293.82 336.94 297.066 342.524C300.312 348.116 301.926 354.431 301.926 361.461C301.926 368.5 300.312 374.833 297.066 380.452C293.82 386.079 289.392 390.454 283.774 393.594C278.146 396.734 271.954 398.304 265.198 398.304ZM265.198 388.055C269.952 388.055 274.195 386.97 277.926 384.8C281.648 382.63 284.559 379.526 286.667 375.486C288.775 371.455 289.825 366.78 289.825 361.461C289.825 356.151 288.775 351.494 286.667 347.499C284.559 343.494 281.648 340.424 277.926 338.281C274.195 336.147 269.952 335.079 265.198 335.079C260.435 335.079 256.192 336.147 252.47 338.281C248.739 340.424 245.828 343.494 243.72 347.499C241.621 351.494 240.563 356.151 240.563 361.461C240.563 366.78 241.621 371.455 243.72 375.486C245.828 379.526 248.739 382.63 252.47 384.8C256.192 386.97 260.435 388.055 265.198 388.055Z" fill="#653090"/>
<path d="M325.211 325.66V371.499C325.211 376.951 326.64 381.061 329.507 383.813C332.373 386.574 336.351 387.958 341.458 387.958C346.636 387.958 350.649 386.574 353.516 383.813C356.373 381.061 357.811 376.951 357.811 371.499V325.66H369.604V371.297C369.604 377.162 368.325 382.128 365.776 386.194C363.227 390.269 359.813 393.304 355.535 395.306C351.258 397.308 346.53 398.305 341.352 398.305C336.184 398.305 331.473 397.308 327.231 395.306C322.988 393.304 319.628 390.269 317.14 386.194C314.653 382.128 313.418 377.162 313.418 371.297V325.66H325.211Z" fill="#653090"/>
<path d="M435.21 347.089C435.21 350.741 434.346 354.189 432.626 357.435C430.897 360.672 428.136 363.319 424.343 365.347C420.55 367.385 415.69 368.399 409.754 368.399H396.718V397.586H384.916V325.664H409.754C415.276 325.664 419.951 326.617 423.779 328.513C427.607 330.409 430.465 332.976 432.37 336.222C434.266 339.459 435.21 343.084 435.21 347.089ZM409.754 358.776C414.235 358.776 417.587 357.762 419.792 355.724C421.997 353.695 423.108 350.811 423.108 347.089C423.108 339.221 418.654 335.287 409.754 335.287H396.718V358.776H409.754Z" fill="#653090"/>
<path d="M573.207 391.973C569.458 391.973 566.071 391.311 563.072 389.997C560.065 388.683 557.701 386.822 555.99 384.405C554.27 381.988 553.414 379.175 553.414 375.955H563.231C563.443 378.363 564.395 380.348 566.089 381.909C567.783 383.461 570.155 384.246 573.207 384.246C576.374 384.246 578.843 383.479 580.616 381.953C582.389 380.418 583.271 378.451 583.271 376.035C583.271 374.156 582.724 372.621 581.622 371.448C580.519 370.266 579.152 369.349 577.52 368.705C575.88 368.061 573.613 367.364 570.72 366.614C567.068 365.653 564.104 364.674 561.82 363.677C559.544 362.689 557.595 361.146 555.99 359.055C554.375 356.956 553.573 354.169 553.573 350.685C553.573 347.465 554.375 344.643 555.99 342.226C557.595 339.818 559.853 337.966 562.746 336.678C565.648 335.39 569 334.746 572.81 334.746C578.226 334.746 582.671 336.096 586.129 338.812C589.587 341.52 591.509 345.234 591.88 349.953H581.745C581.578 347.915 580.616 346.177 578.843 344.722C577.07 343.275 574.742 342.552 571.84 342.552C569.211 342.552 567.068 343.223 565.401 344.563C563.743 345.904 562.905 347.836 562.905 350.358C562.905 352.078 563.434 353.481 564.475 354.583C565.524 355.686 566.856 356.559 568.462 357.203C570.076 357.847 572.272 358.544 575.059 359.293C578.764 360.308 581.78 361.331 584.118 362.354C586.446 363.368 588.44 364.938 590.072 367.055C591.712 369.181 592.524 372.012 592.524 375.549C592.524 378.39 591.765 381.08 590.23 383.602C588.705 386.116 586.473 388.145 583.553 389.68C580.634 391.206 577.185 391.973 573.207 391.973Z" fill="white"/>
<path d="M608.065 341.194C606.398 341.194 605.004 340.63 603.875 339.501C602.746 338.372 602.182 336.978 602.182 335.32C602.182 333.653 602.746 332.259 603.875 331.13C605.004 330.001 606.398 329.445 608.065 329.445C609.67 329.445 611.037 330.001 612.166 331.13C613.295 332.259 613.86 333.653 613.86 335.32C613.86 336.978 613.295 338.372 612.166 339.501C611.037 340.63 609.67 341.194 608.065 341.194ZM612.572 347.069V391.418H603.39V347.069H612.572Z" fill="white"/>
<path d="M647.016 346.336C650.5 346.336 653.631 347.059 656.392 348.506C659.153 349.952 661.314 352.104 662.875 354.945C664.428 357.794 665.204 361.225 665.204 365.247V391.408H656.11V366.614C656.11 362.645 655.122 359.602 653.129 357.485C651.144 355.359 648.436 354.301 645.005 354.301C641.565 354.301 638.848 355.359 636.837 357.485C634.826 359.602 633.812 362.645 633.812 366.614V391.408H624.639V347.059H633.812V352.131C635.32 350.305 637.234 348.885 639.572 347.862C641.909 346.848 644.388 346.336 647.016 346.336Z" fill="white"/>
<path d="M673.812 369.186C673.812 364.626 674.739 360.612 676.591 357.155C678.443 353.697 681.01 351.025 684.282 349.146C687.555 347.267 691.312 346.332 695.546 346.332C700.918 346.332 705.354 347.602 708.865 350.151C712.384 352.7 714.757 356.334 715.992 361.062H706.095C705.284 358.857 703.996 357.146 702.232 355.911C700.459 354.676 698.227 354.059 695.546 354.059C691.789 354.059 688.798 355.382 686.576 358.037C684.344 360.701 683.233 364.414 683.233 369.186C683.233 373.967 684.344 377.689 686.576 380.379C688.798 383.06 691.789 384.401 695.546 384.401C700.856 384.401 704.375 382.064 706.095 377.398H715.992C714.704 381.905 712.287 385.486 708.75 388.141C705.204 390.796 700.803 392.128 695.546 392.128C691.312 392.128 687.555 391.175 684.282 389.27C681.01 387.365 678.443 384.683 676.591 381.217C674.739 377.759 673.812 373.746 673.812 369.186Z" fill="white"/>
<path d="M765.809 368.145C765.809 369.803 765.703 371.303 765.491 372.652H731.603C731.868 376.189 733.191 379.029 735.546 381.182C737.91 383.325 740.803 384.401 744.243 384.401C749.173 384.401 752.666 382.337 754.704 378.2H764.6C763.26 382.275 760.834 385.618 757.323 388.22C753.804 390.822 749.447 392.128 744.243 392.128C740 392.128 736.207 391.175 732.856 389.27C729.495 387.365 726.867 384.683 724.961 381.217C723.056 377.759 722.104 373.746 722.104 369.186C722.104 364.626 723.03 360.612 724.882 357.155C726.734 353.697 729.336 351.025 732.688 349.146C736.049 347.267 739.894 346.332 744.243 346.332C748.424 346.332 752.155 347.241 755.427 349.066C758.699 350.892 761.248 353.45 763.074 356.749C764.9 360.057 765.809 363.849 765.809 368.145ZM756.23 365.243C756.177 361.865 754.968 359.157 752.613 357.119C750.249 355.073 747.321 354.059 743.837 354.059C740.671 354.059 737.963 355.064 735.705 357.075C733.455 359.086 732.115 361.812 731.682 365.243H756.23Z" fill="white"/>
<path d="M793.338 341.108V332.737H810.079V391.411H800.818V341.108H793.338Z" fill="white"/>
<path d="M834.141 375.466C834.679 378.148 835.835 380.185 837.608 381.579C839.372 382.981 841.762 383.678 844.77 383.678C848.571 383.678 851.367 382.17 853.14 379.171C854.904 376.163 855.795 371.039 855.795 363.797C854.508 365.623 852.691 367.025 850.362 368.022C848.025 369.01 845.493 369.513 842.759 369.513C839.266 369.513 836.099 368.798 833.259 367.378C830.41 365.958 828.17 363.832 826.538 361.019C824.897 358.205 824.086 354.783 824.086 350.76C824.086 344.851 825.815 340.149 829.272 336.63C832.73 333.119 837.493 331.364 843.561 331.364C850.856 331.364 856.051 333.79 859.129 338.641C862.217 343.501 863.76 350.946 863.76 360.983C863.76 367.898 863.187 373.561 862.031 377.963C860.876 382.364 858.874 385.689 856.033 387.938C853.193 390.197 849.251 391.326 844.205 391.326C838.463 391.326 834.035 389.817 830.922 386.818C827.808 383.81 826.071 380.027 825.691 375.466H834.141ZM844.364 361.786C847.584 361.786 850.115 360.78 851.967 358.769C853.819 356.749 854.746 354.086 854.746 350.76C854.746 347.056 853.767 344.171 851.808 342.107C849.85 340.035 847.178 339.003 843.799 339.003C840.421 339.003 837.749 340.061 835.791 342.187C833.833 344.304 832.853 347.082 832.853 350.513C832.853 353.786 833.806 356.485 835.711 358.602C837.616 360.728 840.501 361.786 844.364 361.786Z" fill="white"/>
<path d="M883.721 360.746C878.138 357.959 875.351 353.558 875.351 347.551C875.351 344.649 876.074 341.994 877.521 339.577C878.976 337.169 881.146 335.246 884.048 333.826C886.941 332.406 890.487 331.692 894.668 331.692C898.796 331.692 902.324 332.406 905.252 333.826C908.172 335.246 910.359 337.169 911.814 339.577C913.261 341.994 913.984 344.649 913.984 347.551C913.984 350.55 913.217 353.196 911.691 355.472C910.165 357.756 908.136 359.512 905.614 360.746C908.674 361.875 911.082 363.71 912.855 366.259C914.628 368.808 915.51 371.798 915.51 375.238C915.51 378.722 914.628 381.81 912.855 384.491C911.082 387.172 908.621 389.236 905.455 390.692C902.288 392.138 898.69 392.862 894.668 392.862C890.645 392.862 887.064 392.138 883.924 390.692C880.784 389.236 878.332 387.172 876.559 384.491C874.786 381.81 873.904 378.722 873.904 375.238C873.904 371.746 874.786 368.738 876.559 366.224C878.332 363.701 880.714 361.875 883.721 360.746ZM905.208 348.671C905.208 345.672 904.273 343.361 902.394 341.756C900.516 340.142 897.94 339.339 894.668 339.339C891.448 339.339 888.899 340.142 887.02 341.756C885.141 343.361 884.206 345.699 884.206 348.759C884.206 351.441 885.186 353.628 887.144 355.313C889.102 357.006 891.607 357.853 894.668 357.853C897.728 357.853 900.251 356.989 902.235 355.278C904.22 353.558 905.208 351.361 905.208 348.671ZM894.668 364.769C891.131 364.769 888.246 365.642 886.015 367.388C883.792 369.135 882.672 371.64 882.672 374.912C882.672 377.973 883.748 380.451 885.891 382.356C888.044 384.262 890.963 385.214 894.668 385.214C898.319 385.214 901.204 384.253 903.32 382.321C905.437 380.389 906.496 377.92 906.496 374.912C906.496 371.693 905.411 369.196 903.241 367.432C901.062 365.659 898.213 364.769 894.668 364.769Z" fill="white"/>
<path d="M962.355 339.817L939.977 391.408H930.725L953.34 340.779H923.562V332.973H962.355V339.817Z" fill="white"/>
<path d="M477.732 151.501C474.11 150.282 470.168 149.11 465.858 147.832C463.834 147.24 461.697 146.659 459.512 146.121L449.875 166.851L415.887 239.778H455.15L481.888 180.483L482.367 179.364L492.383 156.989L477.732 151.501ZM569.746 91.4615L527.385 0.367188L473.205 116.666L460.957 142.978C462.927 142.664 464.84 142.339 466.652 142.025C471.073 141.273 474.963 140.527 478.371 139.728L502.824 133.608C502.824 133.608 508.258 120.336 513.965 106.011C520.299 90.2954 527.012 73.2953 527.71 70.6844C528.455 73.4066 533.783 86.9916 538.732 99.5588C543.532 111.493 547.954 122.526 547.954 122.526L580.614 114.695L569.746 91.4615Z" fill="white"/>
<path d="M638.734 239.728L591.311 221.454L577.131 188.744L559.985 149.321L547.947 122.523L580.609 114.692L623.224 206.319L638.734 239.728Z" fill="white"/>
<path d="M577.135 188.744L559.81 182.139L529.236 170.792L492.37 156.993L477.719 151.505C474.097 150.28 470.155 149.113 465.84 147.829C463.814 147.244 461.684 146.663 459.499 146.125C457.107 145.486 454.598 144.905 451.988 144.261C455.137 143.834 458.115 143.408 460.938 142.982C462.914 142.668 464.827 142.343 466.639 142.023C471.06 141.277 474.95 140.531 478.358 139.732L502.811 133.605L531.74 126.413L547.941 122.525L580.587 114.699L569.719 91.4653L538.719 99.5626L537.76 99.835L515.385 105.636L513.952 106.014L473.192 116.669L381.719 140.531L449.857 166.853L482.354 179.368L591.301 221.461L577.135 188.744Z" fill="white"/>
<path d="M0.833496 10.2168V42.0217H62.0997V240.523H99.5036V42.0217H160.338V10.2168H0.833496Z" fill="white"/>
<path d="M339.834 10.2168V95.1892H226.573V10.2168H189.066V240.523H226.573V128.698H339.834V240.523H377.179V10.2168H339.834Z" fill="white"/>
<path d="M680.835 108.406V42.3499H687.548C706.471 42.3499 719.41 44.9019 726.378 50.1288C733.359 55.2905 736.773 64.2406 736.773 76.9203C736.773 88.6987 733.526 96.8446 727.082 101.479C720.522 106.067 707.417 108.406 687.548 108.406H680.835ZM796.01 233.068L722.389 135.735C739.765 133.658 752.871 127.425 761.808 116.982C770.707 106.541 775.182 92.1036 775.182 73.6229C775.182 63.1218 773.277 53.48 769.377 44.6897C765.49 35.8457 760.005 28.7073 752.82 23.1135C746.849 18.531 739.701 15.2336 731.237 13.2044C722.76 11.238 710.882 10.2202 695.603 10.2202H643.334V240.531H678.495V137.493H682.753L759.366 240.531H801.662L796.01 233.068Z" fill="white"/>
<path d="M872.336 150.072L895.951 97.5422C897.434 93.8663 898.828 89.8707 900.26 85.5031C901.641 81.1341 902.971 76.4455 904.249 71.4386C905.796 76.7652 907.177 81.6136 908.724 85.9825C910.169 90.3502 911.55 94.1859 912.931 97.5422L936.483 150.072H872.336ZM903.942 1.11621L795.94 233.073L792.424 240.532H831.804L858.54 181.237H949.742L975.863 240.532H1015.38L903.942 1.11621Z" fill="white"/>
</svg>
