<svg width="102" height="24" viewBox="0 0 102 24" fill="none" xmlns="http://www.w3.org/2000/svg">
<g id="Frame 1261154617">
<path id="Vector" fill-rule="evenodd" clip-rule="evenodd" d="M47.6566 15.1042C47.2948 14.9817 46.9007 14.8645 46.4694 14.7368C46.2672 14.6781 46.0543 14.6196 45.8359 14.5664L44.8723 16.6375L41.4755 23.926H45.3993L48.072 18.0005L48.12 17.8885L49.1208 15.6524L47.6566 15.1042ZM56.8513 9.10394L52.6186 0L47.2041 11.6221L45.9796 14.2523C46.1765 14.2203 46.3682 14.1886 46.5494 14.1566C46.9912 14.0821 47.3798 14.0074 47.7206 13.9277L50.1643 13.3154C50.1643 13.3154 50.7074 11.9897 51.2769 10.5576C51.9106 8.98673 52.5813 7.28844 52.6505 7.02755C52.7253 7.29919 53.2575 8.65688 53.7528 9.91335C54.2319 11.1059 54.6737 12.2079 54.6737 12.2079L57.9371 11.4252L56.8513 9.10394Z" fill="white"/>
<path id="Vector_2" fill-rule="evenodd" clip-rule="evenodd" d="M63.7496 23.9206L59.0114 22.0947L57.5952 18.8255L55.8809 14.8859L54.6777 12.2081L57.9413 11.4254L62.2005 20.5828L63.7496 23.9206Z" fill="white"/>
<path id="Vector_3" fill-rule="evenodd" clip-rule="evenodd" d="M57.5809 18.8248L55.8504 18.1645L52.7947 17.0308L49.1105 15.6516L47.6463 15.1036C47.2842 14.9811 46.8904 14.8639 46.4591 14.736C46.2569 14.6775 46.044 14.619 45.8256 14.5658C45.5859 14.5018 45.3358 14.4434 45.0749 14.3794C45.389 14.3369 45.6871 14.2942 45.9693 14.2517C46.1662 14.2197 46.3579 14.1877 46.539 14.1557C46.9809 14.0813 47.3694 14.0068 47.71 13.9268L50.154 13.3146L53.0448 12.5959L54.6634 12.2073L57.9267 11.4246L56.841 9.10335L53.7423 9.91251L53.6463 9.93925L51.4105 10.5195L51.2665 10.5567L47.1938 11.6215L38.0526 14.0068L44.862 16.6367L48.1094 17.8879L58.9968 22.0939L57.5809 18.8248Z" fill="white"/>
<path id="Vector_4" fill-rule="evenodd" clip-rule="evenodd" d="M0 0.984642V4.16306H6.12268V24H9.85985V4.16306H15.9398V0.984642H0Z" fill="white"/>
<path id="Vector_5" fill-rule="evenodd" clip-rule="evenodd" d="M33.8654 0.984642V9.47633H22.5467V0.984642H18.7988V24H22.5467V12.8252H33.8654V24H37.5976V0.984642H33.8654Z" fill="white"/>
<path id="Vector_6" fill-rule="evenodd" clip-rule="evenodd" d="M67.9573 10.7964V4.19464H68.6282C70.5182 4.19464 71.8119 4.45029 72.5091 4.97207C73.2068 5.48835 73.5474 6.38272 73.5474 7.64994C73.5474 8.82645 73.2228 9.64111 72.5786 10.1042C71.9236 10.562 70.6139 10.7964 68.6282 10.7964H67.9573ZM79.4677 23.2544L72.11 13.5275C73.8455 13.3198 75.1552 12.6971 76.0496 11.6535C76.9387 10.6102 77.3861 9.16731 77.3861 7.31983C77.3861 6.27102 77.1944 5.30743 76.8058 4.42879C76.4172 3.54516 75.8687 2.83171 75.15 2.27269C74.5537 1.81489 73.8403 1.48478 72.9936 1.28235C72.147 1.08544 70.96 0.98423 69.4322 0.98423H64.2094V23.9996H67.7229V13.7032H68.1489L75.805 23.9996H80.0322L79.4677 23.2544Z" fill="white"/>
<path id="Vector_7" fill-rule="evenodd" clip-rule="evenodd" d="M87.0877 14.9597L89.4462 9.71044C89.5951 9.3431 89.7338 8.94376 89.8775 8.5072C90.016 8.07063 90.1492 7.60207 90.2768 7.10179C90.4313 7.63406 90.5695 8.11861 90.7239 8.55518C90.8678 8.99175 91.006 9.37509 91.1447 9.71044L93.4977 14.9597H87.0877ZM90.2449 0.0739746L79.4534 23.2545L79.1018 24H83.0364L85.7088 18.0744H94.8234L97.4321 24H101.383L90.2449 0.0739746Z" fill="white"/>
</g>
</svg>
